<?xml version="1.0" encoding="utf-8" standalone="no"?>
<!DOCTYPE svg PUBLIC "-//W3C//DTD SVG 1.1//EN"
  "http://www.w3.org/Graphics/SVG/1.1/DTD/svg11.dtd">
<!-- Created with matplotlib (http://matplotlib.org/) -->
<svg height="756.5498pt" version="1.1" viewBox="0 0 1358.350878 756.5498" width="1358.350878pt" xmlns="http://www.w3.org/2000/svg" xmlns:xlink="http://www.w3.org/1999/xlink">
 <defs>
  <style type="text/css">
*{stroke-linecap:butt;stroke-linejoin:round;}
  </style>
 </defs>
 <g id="figure_1">
  <g id="patch_1">
   <path d="M -0 756.5498 
L 1358.350878 756.5498 
L 1358.350878 0 
L -0 0 
z
" style="fill:none;opacity:0;"/>
  </g>
  <g id="axes_1">
   <g id="patch_2">
    <path d="M 75.81 699.2868 
L 1340.030878 699.2868 
L 1340.030878 35.8968 
L 75.81 35.8968 
z
" style="fill:#f5f5f5;"/>
   </g>
   <g id="matplotlib.axis_1">
    <g id="xtick_1">
     <g id="line2d_1">
      <path clip-path="url(#peb5cf2a1fc)" d="M 75.81 699.2868 
L 75.81 35.8968 
" style="fill:none;stroke:#d5d5d5;stroke-dasharray:1.85,0.8;stroke-dashoffset:0;stroke-width:0.5;"/>
     </g>
     <g id="line2d_2">
      <defs>
       <path d="M 0 0 
L 0 6.25 
" id="mc5c9cb3486" style="stroke:#262626;"/>
      </defs>
      <g>
       <use style="fill:#262626;stroke:#262626;" x="75.81" xlink:href="#mc5c9cb3486" y="699.2868"/>
      </g>
     </g>
     <g id="text_1">
      <!-- 0.0 -->
      <defs>
       <path d="M 51.703125 34.421875 
Q 51.703125 24.515625 49.828125 17.75 
Q 47.953125 10.984375 44.703125 6.8125 
Q 41.453125 2.640625 37.0625 0.828125 
Q 32.671875 -0.984375 27.6875 -0.984375 
Q 22.65625 -0.984375 18.3125 0.828125 
Q 13.96875 2.640625 10.765625 6.78125 
Q 7.5625 10.9375 5.734375 17.703125 
Q 3.90625 24.46875 3.90625 34.421875 
Q 3.90625 44.828125 5.734375 51.640625 
Q 7.5625 58.453125 10.78125 62.5 
Q 14.015625 66.546875 18.40625 68.1875 
Q 22.796875 69.828125 27.984375 69.828125 
Q 32.90625 69.828125 37.21875 68.1875 
Q 41.546875 66.546875 44.765625 62.5 
Q 48 58.453125 49.84375 51.640625 
Q 51.703125 44.828125 51.703125 34.421875 
z
M 42.78125 34.421875 
Q 42.78125 42.625 41.796875 48.0625 
Q 40.828125 53.515625 38.921875 56.765625 
Q 37.015625 60.015625 34.25 61.359375 
Q 31.5 62.703125 27.984375 62.703125 
Q 24.265625 62.703125 21.4375 61.328125 
Q 18.609375 59.96875 16.671875 56.71875 
Q 14.75 53.46875 13.765625 48.015625 
Q 12.796875 42.578125 12.796875 34.421875 
Q 12.796875 26.515625 13.796875 21.09375 
Q 14.796875 15.671875 16.71875 12.375 
Q 18.65625 9.078125 21.4375 7.640625 
Q 24.21875 6.203125 27.78125 6.203125 
Q 31.25 6.203125 34.03125 7.640625 
Q 36.8125 9.078125 38.734375 12.375 
Q 40.671875 15.671875 41.71875 21.09375 
Q 42.78125 26.515625 42.78125 34.421875 
z
" id="LiberationSans-48"/>
       <path d="M 9.125 0 
L 9.125 10.6875 
L 18.65625 10.6875 
L 18.65625 0 
z
" id="LiberationSans-46"/>
      </defs>
      <g style="fill:#262626;" transform="translate(64.69 724.1318)scale(0.16 -0.16)">
       <use xlink:href="#LiberationSans-48"/>
       <use x="55.615234" xlink:href="#LiberationSans-46"/>
       <use x="83.398438" xlink:href="#LiberationSans-48"/>
      </g>
     </g>
    </g>
    <g id="xtick_2">
     <g id="line2d_3">
      <path clip-path="url(#peb5cf2a1fc)" d="M 328.654176 699.2868 
L 328.654176 35.8968 
" style="fill:none;stroke:#d5d5d5;stroke-dasharray:1.85,0.8;stroke-dashoffset:0;stroke-width:0.5;"/>
     </g>
     <g id="line2d_4">
      <g>
       <use style="fill:#262626;stroke:#262626;" x="328.654176" xlink:href="#mc5c9cb3486" y="699.2868"/>
      </g>
     </g>
     <g id="text_2">
      <!-- 0.2 -->
      <defs>
       <path d="M 5.03125 0 
L 5.03125 6.203125 
Q 7.515625 11.921875 11.109375 16.28125 
Q 14.703125 20.65625 18.65625 24.1875 
Q 22.609375 27.734375 26.484375 30.765625 
Q 30.375 33.796875 33.5 36.8125 
Q 36.625 39.84375 38.546875 43.15625 
Q 40.484375 46.484375 40.484375 50.6875 
Q 40.484375 53.609375 39.59375 55.828125 
Q 38.71875 58.0625 37.0625 59.5625 
Q 35.40625 61.078125 33.078125 61.828125 
Q 30.765625 62.59375 27.9375 62.59375 
Q 25.296875 62.59375 22.96875 61.859375 
Q 20.65625 61.140625 18.84375 59.671875 
Q 17.046875 58.203125 15.890625 56.03125 
Q 14.75 53.859375 14.40625 50.984375 
L 5.421875 51.8125 
Q 5.859375 55.515625 7.46875 58.78125 
Q 9.078125 62.0625 11.90625 64.53125 
Q 14.75 67 18.71875 68.40625 
Q 22.703125 69.828125 27.9375 69.828125 
Q 33.0625 69.828125 37.0625 68.609375 
Q 41.0625 67.390625 43.8125 64.984375 
Q 46.578125 62.59375 48.046875 59.078125 
Q 49.515625 55.5625 49.515625 50.984375 
Q 49.515625 47.515625 48.265625 44.390625 
Q 47.015625 41.265625 44.9375 38.421875 
Q 42.875 35.59375 40.140625 32.953125 
Q 37.40625 30.328125 34.421875 27.8125 
Q 31.453125 25.296875 28.421875 22.828125 
Q 25.390625 20.359375 22.71875 17.859375 
Q 20.0625 15.375 17.96875 12.8125 
Q 15.875 10.25 14.703125 7.46875 
L 50.59375 7.46875 
L 50.59375 0 
z
" id="LiberationSans-50"/>
      </defs>
      <g style="fill:#262626;" transform="translate(317.534176 724.1318)scale(0.16 -0.16)">
       <use xlink:href="#LiberationSans-48"/>
       <use x="55.615234" xlink:href="#LiberationSans-46"/>
       <use x="83.398438" xlink:href="#LiberationSans-50"/>
      </g>
     </g>
    </g>
    <g id="xtick_3">
     <g id="line2d_5">
      <path clip-path="url(#peb5cf2a1fc)" d="M 581.498351 699.2868 
L 581.498351 35.8968 
" style="fill:none;stroke:#d5d5d5;stroke-dasharray:1.85,0.8;stroke-dashoffset:0;stroke-width:0.5;"/>
     </g>
     <g id="line2d_6">
      <g>
       <use style="fill:#262626;stroke:#262626;" x="581.498351" xlink:href="#mc5c9cb3486" y="699.2868"/>
      </g>
     </g>
     <g id="text_3">
      <!-- 0.4 -->
      <defs>
       <path d="M 43.015625 15.578125 
L 43.015625 0 
L 34.71875 0 
L 34.71875 15.578125 
L 2.296875 15.578125 
L 2.296875 22.40625 
L 33.796875 68.796875 
L 43.015625 68.796875 
L 43.015625 22.515625 
L 52.6875 22.515625 
L 52.6875 15.578125 
z
M 34.71875 58.890625 
Q 34.625 58.640625 34.234375 57.9375 
Q 33.84375 57.234375 33.34375 56.34375 
Q 32.859375 55.46875 32.34375 54.5625 
Q 31.84375 53.65625 31.453125 53.078125 
L 13.8125 27.09375 
Q 13.578125 26.703125 13.109375 26.0625 
Q 12.640625 25.4375 12.15625 24.78125 
Q 11.671875 24.125 11.171875 23.484375 
Q 10.6875 22.859375 10.40625 22.515625 
L 34.71875 22.515625 
z
" id="LiberationSans-52"/>
      </defs>
      <g style="fill:#262626;" transform="translate(570.378351 724.1318)scale(0.16 -0.16)">
       <use xlink:href="#LiberationSans-48"/>
       <use x="55.615234" xlink:href="#LiberationSans-46"/>
       <use x="83.398438" xlink:href="#LiberationSans-52"/>
      </g>
     </g>
    </g>
    <g id="xtick_4">
     <g id="line2d_7">
      <path clip-path="url(#peb5cf2a1fc)" d="M 834.342527 699.2868 
L 834.342527 35.8968 
" style="fill:none;stroke:#d5d5d5;stroke-dasharray:1.85,0.8;stroke-dashoffset:0;stroke-width:0.5;"/>
     </g>
     <g id="line2d_8">
      <g>
       <use style="fill:#262626;stroke:#262626;" x="834.342527" xlink:href="#mc5c9cb3486" y="699.2868"/>
      </g>
     </g>
     <g id="text_4">
      <!-- 0.6 -->
      <defs>
       <path d="M 51.21875 22.515625 
Q 51.21875 17.328125 49.78125 13 
Q 48.34375 8.6875 45.53125 5.578125 
Q 42.71875 2.484375 38.5625 0.75 
Q 34.421875 -0.984375 29 -0.984375 
Q 23 -0.984375 18.5 1.3125 
Q 14.015625 3.609375 11.03125 7.921875 
Q 8.0625 12.25 6.5625 18.53125 
Q 5.078125 24.8125 5.078125 32.8125 
Q 5.078125 42 6.765625 48.921875 
Q 8.453125 55.859375 11.625 60.5 
Q 14.796875 65.140625 19.359375 67.484375 
Q 23.921875 69.828125 29.6875 69.828125 
Q 33.203125 69.828125 36.28125 69.09375 
Q 39.359375 68.359375 41.875 66.71875 
Q 44.390625 65.09375 46.28125 62.40625 
Q 48.1875 59.71875 49.3125 55.8125 
L 40.921875 54.296875 
Q 39.546875 58.734375 36.546875 60.71875 
Q 33.546875 62.703125 29.59375 62.703125 
Q 25.984375 62.703125 23.046875 60.984375 
Q 20.125 59.28125 18.0625 55.875 
Q 16.015625 52.484375 14.90625 47.359375 
Q 13.8125 42.234375 13.8125 35.40625 
Q 16.21875 39.84375 20.5625 42.15625 
Q 24.90625 44.484375 30.515625 44.484375 
Q 35.203125 44.484375 39.015625 42.96875 
Q 42.828125 41.453125 45.53125 38.59375 
Q 48.25 35.75 49.734375 31.671875 
Q 51.21875 27.59375 51.21875 22.515625 
z
M 42.28125 22.125 
Q 42.28125 25.6875 41.40625 28.5625 
Q 40.53125 31.453125 38.765625 33.46875 
Q 37.015625 35.5 34.421875 36.59375 
Q 31.84375 37.703125 28.421875 37.703125 
Q 26.03125 37.703125 23.578125 36.984375 
Q 21.140625 36.28125 19.15625 34.6875 
Q 17.1875 33.109375 15.9375 30.515625 
Q 14.703125 27.9375 14.703125 24.21875 
Q 14.703125 20.40625 15.671875 17.109375 
Q 16.65625 13.8125 18.484375 11.375 
Q 20.3125 8.9375 22.890625 7.515625 
Q 25.484375 6.109375 28.71875 6.109375 
Q 31.890625 6.109375 34.40625 7.203125 
Q 36.921875 8.296875 38.671875 10.375 
Q 40.4375 12.453125 41.359375 15.421875 
Q 42.28125 18.40625 42.28125 22.125 
z
" id="LiberationSans-54"/>
      </defs>
      <g style="fill:#262626;" transform="translate(823.222527 724.1318)scale(0.16 -0.16)">
       <use xlink:href="#LiberationSans-48"/>
       <use x="55.615234" xlink:href="#LiberationSans-46"/>
       <use x="83.398438" xlink:href="#LiberationSans-54"/>
      </g>
     </g>
    </g>
    <g id="xtick_5">
     <g id="line2d_9">
      <path clip-path="url(#peb5cf2a1fc)" d="M 1087.186703 699.2868 
L 1087.186703 35.8968 
" style="fill:none;stroke:#d5d5d5;stroke-dasharray:1.85,0.8;stroke-dashoffset:0;stroke-width:0.5;"/>
     </g>
     <g id="line2d_10">
      <g>
       <use style="fill:#262626;stroke:#262626;" x="1087.186703" xlink:href="#mc5c9cb3486" y="699.2868"/>
      </g>
     </g>
     <g id="text_5">
      <!-- 0.8 -->
      <defs>
       <path d="M 51.265625 19.1875 
Q 51.265625 14.796875 49.875 11.109375 
Q 48.484375 7.421875 45.625 4.734375 
Q 42.78125 2.046875 38.328125 0.53125 
Q 33.890625 -0.984375 27.828125 -0.984375 
Q 21.78125 -0.984375 17.359375 0.53125 
Q 12.9375 2.046875 10.03125 4.703125 
Q 7.125 7.375 5.734375 11.0625 
Q 4.34375 14.75 4.34375 19.09375 
Q 4.34375 22.859375 5.484375 25.78125 
Q 6.640625 28.71875 8.5625 30.828125 
Q 10.5 32.953125 12.96875 34.25 
Q 15.4375 35.546875 18.0625 35.984375 
L 18.0625 36.1875 
Q 15.1875 36.859375 12.90625 38.375 
Q 10.640625 39.890625 9.09375 42.015625 
Q 7.5625 44.140625 6.75 46.71875 
Q 5.953125 49.3125 5.953125 52.203125 
Q 5.953125 55.8125 7.34375 59 
Q 8.734375 62.203125 11.46875 64.625 
Q 14.203125 67.046875 18.25 68.4375 
Q 22.3125 69.828125 27.640625 69.828125 
Q 33.25 69.828125 37.375 68.40625 
Q 41.5 67 44.203125 64.578125 
Q 46.921875 62.15625 48.234375 58.9375 
Q 49.5625 55.71875 49.5625 52.09375 
Q 49.5625 49.265625 48.75 46.671875 
Q 47.953125 44.09375 46.40625 41.96875 
Q 44.875 39.84375 42.59375 38.34375 
Q 40.328125 36.859375 37.359375 36.28125 
L 37.359375 36.078125 
Q 40.328125 35.59375 42.859375 34.296875 
Q 45.40625 33.015625 47.265625 30.890625 
Q 49.125 28.765625 50.1875 25.828125 
Q 51.265625 22.90625 51.265625 19.1875 
z
M 40.4375 51.609375 
Q 40.4375 54.203125 39.765625 56.34375 
Q 39.109375 58.5 37.59375 60.03125 
Q 36.078125 61.578125 33.640625 62.421875 
Q 31.203125 63.28125 27.640625 63.28125 
Q 24.171875 63.28125 21.78125 62.421875 
Q 19.390625 61.578125 17.84375 60.03125 
Q 16.3125 58.5 15.625 56.34375 
Q 14.9375 54.203125 14.9375 51.609375 
Q 14.9375 49.5625 15.46875 47.40625 
Q 16.015625 45.265625 17.421875 43.5 
Q 18.84375 41.75 21.328125 40.625 
Q 23.828125 39.5 27.734375 39.5 
Q 31.890625 39.5 34.40625 40.625 
Q 36.921875 41.75 38.25 43.5 
Q 39.59375 45.265625 40.015625 47.40625 
Q 40.4375 49.5625 40.4375 51.609375 
z
M 42.140625 20.015625 
Q 42.140625 22.515625 41.453125 24.828125 
Q 40.765625 27.15625 39.109375 28.9375 
Q 37.453125 30.71875 34.640625 31.8125 
Q 31.84375 32.90625 27.640625 32.90625 
Q 23.78125 32.90625 21.0625 31.8125 
Q 18.359375 30.71875 16.671875 28.90625 
Q 14.984375 27.09375 14.203125 24.71875 
Q 13.421875 22.359375 13.421875 19.828125 
Q 13.421875 16.65625 14.203125 14.03125 
Q 14.984375 11.421875 16.6875 9.546875 
Q 18.40625 7.671875 21.1875 6.640625 
Q 23.96875 5.609375 27.9375 5.609375 
Q 31.9375 5.609375 34.671875 6.640625 
Q 37.40625 7.671875 39.0625 9.546875 
Q 40.71875 11.421875 41.421875 14.078125 
Q 42.140625 16.75 42.140625 20.015625 
z
" id="LiberationSans-56"/>
      </defs>
      <g style="fill:#262626;" transform="translate(1076.066703 724.1318)scale(0.16 -0.16)">
       <use xlink:href="#LiberationSans-48"/>
       <use x="55.615234" xlink:href="#LiberationSans-46"/>
       <use x="83.398438" xlink:href="#LiberationSans-56"/>
      </g>
     </g>
    </g>
    <g id="xtick_6">
     <g id="line2d_11">
      <path clip-path="url(#peb5cf2a1fc)" d="M 1340.030878 699.2868 
L 1340.030878 35.8968 
" style="fill:none;stroke:#d5d5d5;stroke-dasharray:1.85,0.8;stroke-dashoffset:0;stroke-width:0.5;"/>
     </g>
     <g id="line2d_12">
      <g>
       <use style="fill:#262626;stroke:#262626;" x="1340.030878" xlink:href="#mc5c9cb3486" y="699.2868"/>
      </g>
     </g>
     <g id="text_6">
      <!-- 1.0 -->
      <defs>
       <path d="M 7.625 0 
L 7.625 7.46875 
L 25.140625 7.46875 
L 25.140625 60.40625 
L 9.625 49.3125 
L 9.625 57.625 
L 25.875 68.796875 
L 33.984375 68.796875 
L 33.984375 7.46875 
L 50.734375 7.46875 
L 50.734375 0 
z
" id="LiberationSans-49"/>
      </defs>
      <g style="fill:#262626;" transform="translate(1328.910878 724.1318)scale(0.16 -0.16)">
       <use xlink:href="#LiberationSans-49"/>
       <use x="55.615234" xlink:href="#LiberationSans-46"/>
       <use x="83.398438" xlink:href="#LiberationSans-48"/>
      </g>
     </g>
    </g>
    <g id="xtick_7">
     <g id="line2d_13">
      <defs>
       <path d="M 0 0 
L 0 3.75 
" id="mffa8fc8df4" style="stroke:#262626;"/>
      </defs>
      <g>
       <use style="fill:#262626;stroke:#262626;" x="139.021044" xlink:href="#mffa8fc8df4" y="699.2868"/>
      </g>
     </g>
    </g>
    <g id="xtick_8">
     <g id="line2d_14">
      <g>
       <use style="fill:#262626;stroke:#262626;" x="202.232088" xlink:href="#mffa8fc8df4" y="699.2868"/>
      </g>
     </g>
    </g>
    <g id="xtick_9">
     <g id="line2d_15">
      <g>
       <use style="fill:#262626;stroke:#262626;" x="265.443132" xlink:href="#mffa8fc8df4" y="699.2868"/>
      </g>
     </g>
    </g>
    <g id="xtick_10">
     <g id="line2d_16">
      <g>
       <use style="fill:#262626;stroke:#262626;" x="391.86522" xlink:href="#mffa8fc8df4" y="699.2868"/>
      </g>
     </g>
    </g>
    <g id="xtick_11">
     <g id="line2d_17">
      <g>
       <use style="fill:#262626;stroke:#262626;" x="455.076263" xlink:href="#mffa8fc8df4" y="699.2868"/>
      </g>
     </g>
    </g>
    <g id="xtick_12">
     <g id="line2d_18">
      <g>
       <use style="fill:#262626;stroke:#262626;" x="518.287307" xlink:href="#mffa8fc8df4" y="699.2868"/>
      </g>
     </g>
    </g>
    <g id="xtick_13">
     <g id="line2d_19">
      <g>
       <use style="fill:#262626;stroke:#262626;" x="644.709395" xlink:href="#mffa8fc8df4" y="699.2868"/>
      </g>
     </g>
    </g>
    <g id="xtick_14">
     <g id="line2d_20">
      <g>
       <use style="fill:#262626;stroke:#262626;" x="707.920439" xlink:href="#mffa8fc8df4" y="699.2868"/>
      </g>
     </g>
    </g>
    <g id="xtick_15">
     <g id="line2d_21">
      <g>
       <use style="fill:#262626;stroke:#262626;" x="771.131483" xlink:href="#mffa8fc8df4" y="699.2868"/>
      </g>
     </g>
    </g>
    <g id="xtick_16">
     <g id="line2d_22">
      <g>
       <use style="fill:#262626;stroke:#262626;" x="897.553571" xlink:href="#mffa8fc8df4" y="699.2868"/>
      </g>
     </g>
    </g>
    <g id="xtick_17">
     <g id="line2d_23">
      <g>
       <use style="fill:#262626;stroke:#262626;" x="960.764615" xlink:href="#mffa8fc8df4" y="699.2868"/>
      </g>
     </g>
    </g>
    <g id="xtick_18">
     <g id="line2d_24">
      <g>
       <use style="fill:#262626;stroke:#262626;" x="1023.975659" xlink:href="#mffa8fc8df4" y="699.2868"/>
      </g>
     </g>
    </g>
    <g id="xtick_19">
     <g id="line2d_25">
      <g>
       <use style="fill:#262626;stroke:#262626;" x="1150.397746" xlink:href="#mffa8fc8df4" y="699.2868"/>
      </g>
     </g>
    </g>
    <g id="xtick_20">
     <g id="line2d_26">
      <g>
       <use style="fill:#262626;stroke:#262626;" x="1213.60879" xlink:href="#mffa8fc8df4" y="699.2868"/>
      </g>
     </g>
    </g>
    <g id="xtick_21">
     <g id="line2d_27">
      <g>
       <use style="fill:#262626;stroke:#262626;" x="1276.819834" xlink:href="#mffa8fc8df4" y="699.2868"/>
      </g>
     </g>
    </g>
    <g id="text_7">
     <!-- Signal -->
     <defs>
      <path d="M 62.109375 19 
Q 62.109375 14.65625 60.421875 10.984375 
Q 58.734375 7.328125 55.21875 4.65625 
Q 51.703125 2 46.359375 0.5 
Q 41.015625 -0.984375 33.6875 -0.984375 
Q 20.84375 -0.984375 13.671875 3.515625 
Q 6.5 8.015625 4.546875 16.5 
L 13.578125 18.3125 
Q 14.265625 15.625 15.671875 13.421875 
Q 17.09375 11.234375 19.5 9.640625 
Q 21.921875 8.0625 25.484375 7.171875 
Q 29.046875 6.296875 34.03125 6.296875 
Q 38.1875 6.296875 41.65625 7 
Q 45.125 7.71875 47.609375 9.171875 
Q 50.09375 10.640625 51.484375 12.953125 
Q 52.875 15.28125 52.875 18.5 
Q 52.875 21.875 51.34375 23.96875 
Q 49.8125 26.078125 47.015625 27.4375 
Q 44.234375 28.8125 40.375 29.734375 
Q 36.53125 30.671875 31.84375 31.734375 
Q 28.953125 32.375 26.046875 33.125 
Q 23.140625 33.890625 20.484375 34.9375 
Q 17.828125 35.984375 15.484375 37.390625 
Q 13.140625 38.8125 11.421875 40.796875 
Q 9.71875 42.78125 8.734375 45.390625 
Q 7.765625 48 7.765625 51.421875 
Q 7.765625 56.296875 9.734375 59.78125 
Q 11.71875 63.28125 15.234375 65.53125 
Q 18.75 67.78125 23.53125 68.796875 
Q 28.328125 69.828125 33.890625 69.828125 
Q 40.28125 69.828125 44.8125 68.828125 
Q 49.359375 67.828125 52.484375 65.8125 
Q 55.609375 63.8125 57.484375 60.859375 
Q 59.375 57.90625 60.5 54 
L 51.3125 52.390625 
Q 50.640625 54.890625 49.34375 56.84375 
Q 48.046875 58.796875 45.9375 60.109375 
Q 43.84375 61.421875 40.84375 62.109375 
Q 37.84375 62.796875 33.796875 62.796875 
Q 29 62.796875 25.75 61.9375 
Q 22.515625 61.078125 20.53125 59.609375 
Q 18.5625 58.15625 17.703125 56.171875 
Q 16.84375 54.203125 16.84375 51.90625 
Q 16.84375 48.828125 18.375 46.84375 
Q 19.921875 44.875 22.5625 43.546875 
Q 25.203125 42.234375 28.65625 41.359375 
Q 32.125 40.484375 36.03125 39.59375 
Q 39.203125 38.875 42.359375 38.109375 
Q 45.515625 37.359375 48.390625 36.296875 
Q 51.265625 35.25 53.78125 33.828125 
Q 56.296875 32.421875 58.15625 30.375 
Q 60.015625 28.328125 61.0625 25.53125 
Q 62.109375 22.75 62.109375 19 
z
" id="LiberationSans-83"/>
      <path d="M 6.6875 64.0625 
L 6.6875 72.46875 
L 15.484375 72.46875 
L 15.484375 64.0625 
z
M 6.6875 0 
L 6.6875 52.828125 
L 15.484375 52.828125 
L 15.484375 0 
z
" id="LiberationSans-105"/>
      <path d="M 26.765625 -20.75 
Q 22.21875 -20.75 18.703125 -19.8125 
Q 15.1875 -18.890625 12.6875 -17.15625 
Q 10.203125 -15.4375 8.640625 -13.03125 
Q 7.078125 -10.640625 6.390625 -7.71875 
L 15.234375 -6.453125 
Q 16.109375 -10.109375 19.109375 -12.078125 
Q 22.125 -14.0625 27 -14.0625 
Q 29.984375 -14.0625 32.421875 -13.234375 
Q 34.859375 -12.40625 36.5625 -10.5625 
Q 38.28125 -8.734375 39.203125 -5.796875 
Q 40.140625 -2.875 40.140625 1.3125 
L 40.140625 9.8125 
L 40.046875 9.8125 
Q 39.0625 7.8125 37.625 5.984375 
Q 36.1875 4.15625 34.109375 2.734375 
Q 32.03125 1.3125 29.296875 0.453125 
Q 26.5625 -0.390625 23.046875 -0.390625 
Q 18.015625 -0.390625 14.421875 1.296875 
Q 10.84375 2.984375 8.5625 6.34375 
Q 6.296875 9.71875 5.25 14.71875 
Q 4.203125 19.734375 4.203125 26.3125 
Q 4.203125 32.671875 5.25 37.75 
Q 6.296875 42.828125 8.65625 46.359375 
Q 11.03125 49.90625 14.8125 51.78125 
Q 18.609375 53.65625 24.03125 53.65625 
Q 29.640625 53.65625 33.765625 51.09375 
Q 37.890625 48.53125 40.140625 43.796875 
L 40.234375 43.796875 
Q 40.234375 45.015625 40.296875 46.53125 
Q 40.375 48.046875 40.453125 49.390625 
Q 40.53125 50.734375 40.625 51.703125 
Q 40.71875 52.6875 40.828125 52.828125 
L 49.171875 52.828125 
Q 49.125 52.390625 49.078125 51.34375 
Q 49.03125 50.296875 48.96875 48.828125 
Q 48.921875 47.359375 48.890625 45.578125 
Q 48.875 43.796875 48.875 41.890625 
L 48.875 1.515625 
Q 48.875 -9.578125 43.421875 -15.15625 
Q 37.984375 -20.75 26.765625 -20.75 
z
M 40.140625 26.421875 
Q 40.140625 31.9375 38.9375 35.859375 
Q 37.75 39.796875 35.796875 42.28125 
Q 33.84375 44.78125 31.328125 45.953125 
Q 28.8125 47.125 26.171875 47.125 
Q 22.796875 47.125 20.375 45.953125 
Q 17.96875 44.78125 16.375 42.265625 
Q 14.796875 39.75 14.03125 35.8125 
Q 13.28125 31.890625 13.28125 26.421875 
Q 13.28125 20.703125 14.03125 16.8125 
Q 14.796875 12.9375 16.359375 10.546875 
Q 17.921875 8.15625 20.3125 7.125 
Q 22.703125 6.109375 26.03125 6.109375 
Q 28.65625 6.109375 31.171875 7.21875 
Q 33.6875 8.34375 35.6875 10.78125 
Q 37.703125 13.234375 38.921875 17.09375 
Q 40.140625 20.953125 40.140625 26.421875 
z
" id="LiberationSans-103"/>
      <path d="M 40.28125 0 
L 40.28125 33.5 
Q 40.28125 37.359375 39.71875 39.9375 
Q 39.15625 42.53125 37.890625 44.109375 
Q 36.625 45.703125 34.546875 46.359375 
Q 32.46875 47.015625 29.390625 47.015625 
Q 26.265625 47.015625 23.75 45.921875 
Q 21.234375 44.828125 19.453125 42.75 
Q 17.671875 40.671875 16.6875 37.625 
Q 15.71875 34.578125 15.71875 30.609375 
L 15.71875 0 
L 6.9375 0 
L 6.9375 41.546875 
Q 6.9375 43.21875 6.90625 45.046875 
Q 6.890625 46.875 6.828125 48.5 
Q 6.78125 50.140625 6.734375 51.3125 
Q 6.6875 52.484375 6.640625 52.828125 
L 14.9375 52.828125 
Q 14.984375 52.59375 15.03125 51.515625 
Q 15.09375 50.4375 15.15625 49.046875 
Q 15.234375 47.65625 15.28125 46.21875 
Q 15.328125 44.78125 15.328125 43.796875 
L 15.484375 43.796875 
Q 16.75 46.09375 18.265625 47.953125 
Q 19.78125 49.8125 21.78125 51.09375 
Q 23.78125 52.390625 26.359375 53.09375 
Q 28.953125 53.8125 32.375 53.8125 
Q 36.765625 53.8125 39.9375 52.734375 
Q 43.109375 51.65625 45.15625 49.40625 
Q 47.21875 47.171875 48.171875 43.625 
Q 49.125 40.09375 49.125 35.203125 
L 49.125 0 
z
" id="LiberationSans-110"/>
      <path d="M 20.21875 -0.984375 
Q 12.25 -0.984375 8.25 3.21875 
Q 4.25 7.421875 4.25 14.75 
Q 4.25 19.96875 6.21875 23.3125 
Q 8.203125 26.65625 11.390625 28.5625 
Q 14.59375 30.46875 18.6875 31.203125 
Q 22.796875 31.9375 27.046875 32.03125 
L 38.921875 32.234375 
L 38.921875 35.109375 
Q 38.921875 38.375 38.234375 40.671875 
Q 37.546875 42.96875 36.125 44.375 
Q 34.71875 45.796875 32.59375 46.453125 
Q 30.46875 47.125 27.59375 47.125 
Q 25.046875 47.125 23 46.75 
Q 20.953125 46.390625 19.4375 45.4375 
Q 17.921875 44.484375 16.984375 42.84375 
Q 16.0625 41.21875 15.765625 38.71875 
L 6.59375 39.546875 
Q 7.078125 42.671875 8.4375 45.28125 
Q 9.8125 47.90625 12.328125 49.796875 
Q 14.84375 51.703125 18.625 52.75 
Q 22.40625 53.8125 27.78125 53.8125 
Q 37.75 53.8125 42.765625 49.234375 
Q 47.796875 44.671875 47.796875 36.03125 
L 47.796875 13.28125 
Q 47.796875 9.375 48.828125 7.390625 
Q 49.859375 5.421875 52.734375 5.421875 
Q 53.46875 5.421875 54.203125 5.515625 
Q 54.9375 5.609375 55.609375 5.765625 
L 55.609375 0.296875 
Q 53.953125 -0.09375 52.3125 -0.28125 
Q 50.6875 -0.484375 48.828125 -0.484375 
Q 46.34375 -0.484375 44.5625 0.171875 
Q 42.78125 0.828125 41.65625 2.171875 
Q 40.53125 3.515625 39.9375 5.484375 
Q 39.359375 7.46875 39.203125 10.109375 
L 38.921875 10.109375 
Q 37.5 7.5625 35.8125 5.515625 
Q 34.125 3.46875 31.875 2.03125 
Q 29.640625 0.59375 26.78125 -0.1875 
Q 23.921875 -0.984375 20.21875 -0.984375 
z
M 22.21875 5.609375 
Q 26.421875 5.609375 29.5625 7.140625 
Q 32.71875 8.6875 34.78125 11.078125 
Q 36.859375 13.484375 37.890625 16.3125 
Q 38.921875 19.140625 38.921875 21.734375 
L 38.921875 26.078125 
L 29.296875 25.875 
Q 26.078125 25.828125 23.171875 25.40625 
Q 20.265625 25 18.0625 23.78125 
Q 15.875 22.5625 14.578125 20.359375 
Q 13.28125 18.171875 13.28125 14.59375 
Q 13.28125 10.296875 15.59375 7.953125 
Q 17.921875 5.609375 22.21875 5.609375 
z
" id="LiberationSans-97"/>
      <path d="M 6.734375 0 
L 6.734375 72.46875 
L 15.53125 72.46875 
L 15.53125 0 
z
" id="LiberationSans-108"/>
     </defs>
     <g style="fill:#262626;" transform="translate(681.235439 745.3658)scale(0.192 -0.192)">
      <use xlink:href="#LiberationSans-83"/>
      <use x="66.699219" xlink:href="#LiberationSans-105"/>
      <use x="88.916016" xlink:href="#LiberationSans-103"/>
      <use x="144.53125" xlink:href="#LiberationSans-110"/>
      <use x="200.146484" xlink:href="#LiberationSans-97"/>
      <use x="255.761719" xlink:href="#LiberationSans-108"/>
     </g>
    </g>
   </g>
   <g id="matplotlib.axis_2">
    <g id="ytick_1">
     <g id="line2d_28">
      <path clip-path="url(#peb5cf2a1fc)" d="M 75.81 639.343966 
L 1340.030878 639.343966 
" style="fill:none;stroke:#d5d5d5;stroke-dasharray:1.85,0.8;stroke-dashoffset:0;stroke-width:0.5;"/>
     </g>
     <g id="line2d_29">
      <defs>
       <path d="M 0 0 
L -6.25 0 
" id="m142a8c8c4d" style="stroke:#262626;"/>
      </defs>
      <g>
       <use style="fill:#262626;stroke:#262626;" x="75.81" xlink:href="#m142a8c8c4d" y="639.343966"/>
      </g>
     </g>
     <g id="text_8">
      <!-- $\mathdefault{10^{-4}}$ -->
      <defs>
       <path d="M 4.9375 29.6875 
L 4.9375 36.8125 
L 53.515625 36.8125 
L 53.515625 29.6875 
z
" id="LiberationSans-8722"/>
      </defs>
      <g style="fill:#262626;" transform="translate(31.36 645.141466)scale(0.16 -0.16)">
       <use transform="translate(0 0.8625)" xlink:href="#LiberationSans-49"/>
       <use transform="translate(55.615234 0.8625)" xlink:href="#LiberationSans-48"/>
       <use transform="translate(112.154961 37.842188)scale(0.7)" xlink:href="#LiberationSans-8722"/>
       <use transform="translate(153.033867 37.842188)scale(0.7)" xlink:href="#LiberationSans-52"/>
      </g>
     </g>
    </g>
    <g id="ytick_2">
     <g id="line2d_30">
      <path clip-path="url(#peb5cf2a1fc)" d="M 75.81 563.91307 
L 1340.030878 563.91307 
" style="fill:none;stroke:#d5d5d5;stroke-dasharray:1.85,0.8;stroke-dashoffset:0;stroke-width:0.5;"/>
     </g>
     <g id="line2d_31">
      <g>
       <use style="fill:#262626;stroke:#262626;" x="75.81" xlink:href="#m142a8c8c4d" y="563.91307"/>
      </g>
     </g>
     <g id="text_9">
      <!-- $\mathdefault{10^{-3}}$ -->
      <defs>
       <path d="M 51.21875 19 
Q 51.21875 14.265625 49.671875 10.546875 
Q 48.140625 6.84375 45.1875 4.265625 
Q 42.234375 1.703125 37.859375 0.359375 
Q 33.5 -0.984375 27.875 -0.984375 
Q 21.484375 -0.984375 17.109375 0.609375 
Q 12.75 2.203125 9.90625 4.8125 
Q 7.078125 7.421875 5.65625 10.765625 
Q 4.25 14.109375 3.8125 17.671875 
L 12.890625 18.5 
Q 13.28125 15.765625 14.328125 13.515625 
Q 15.375 11.28125 17.1875 9.671875 
Q 19 8.0625 21.625 7.171875 
Q 24.265625 6.296875 27.875 6.296875 
Q 34.515625 6.296875 38.296875 9.5625 
Q 42.09375 12.84375 42.09375 19.28125 
Q 42.09375 23.09375 40.40625 25.40625 
Q 38.71875 27.734375 36.203125 29.03125 
Q 33.6875 30.328125 30.734375 30.765625 
Q 27.78125 31.203125 25.296875 31.203125 
L 20.3125 31.203125 
L 20.3125 38.8125 
L 25.09375 38.8125 
Q 27.59375 38.8125 30.265625 39.328125 
Q 32.953125 39.84375 35.171875 41.1875 
Q 37.40625 42.53125 38.84375 44.828125 
Q 40.28125 47.125 40.28125 50.6875 
Q 40.28125 56.203125 37.03125 59.390625 
Q 33.796875 62.59375 27.390625 62.59375 
Q 21.578125 62.59375 17.984375 59.609375 
Q 14.40625 56.640625 13.8125 51.21875 
L 4.984375 51.90625 
Q 5.515625 56.453125 7.46875 59.8125 
Q 9.421875 63.1875 12.421875 65.40625 
Q 15.4375 67.625 19.28125 68.71875 
Q 23.140625 69.828125 27.484375 69.828125 
Q 33.25 69.828125 37.390625 68.375 
Q 41.546875 66.9375 44.1875 64.46875 
Q 46.828125 62.015625 48.0625 58.6875 
Q 49.3125 55.375 49.3125 51.609375 
Q 49.3125 48.578125 48.484375 45.9375 
Q 47.65625 43.3125 45.890625 41.203125 
Q 44.140625 39.109375 41.421875 37.59375 
Q 38.71875 36.078125 34.90625 35.296875 
L 34.90625 35.109375 
Q 39.0625 34.671875 42.140625 33.21875 
Q 45.21875 31.78125 47.21875 29.625 
Q 49.21875 27.484375 50.21875 24.75 
Q 51.21875 22.015625 51.21875 19 
z
" id="LiberationSans-51"/>
      </defs>
      <g style="fill:#262626;" transform="translate(31.36 569.71057)scale(0.16 -0.16)">
       <use transform="translate(0 0.140625)" xlink:href="#LiberationSans-49"/>
       <use transform="translate(55.615234 0.140625)" xlink:href="#LiberationSans-48"/>
       <use transform="translate(112.154961 37.120312)scale(0.7)" xlink:href="#LiberationSans-8722"/>
       <use transform="translate(153.033867 37.120312)scale(0.7)" xlink:href="#LiberationSans-51"/>
      </g>
     </g>
    </g>
    <g id="ytick_3">
     <g id="line2d_32">
      <path clip-path="url(#peb5cf2a1fc)" d="M 75.81 488.482174 
L 1340.030878 488.482174 
" style="fill:none;stroke:#d5d5d5;stroke-dasharray:1.85,0.8;stroke-dashoffset:0;stroke-width:0.5;"/>
     </g>
     <g id="line2d_33">
      <g>
       <use style="fill:#262626;stroke:#262626;" x="75.81" xlink:href="#m142a8c8c4d" y="488.482174"/>
      </g>
     </g>
     <g id="text_10">
      <!-- $\mathdefault{10^{-2}}$ -->
      <g style="fill:#262626;" transform="translate(31.36 494.279674)scale(0.16 -0.16)">
       <use transform="translate(0 0.140625)" xlink:href="#LiberationSans-49"/>
       <use transform="translate(55.615234 0.140625)" xlink:href="#LiberationSans-48"/>
       <use transform="translate(112.154961 37.120312)scale(0.7)" xlink:href="#LiberationSans-8722"/>
       <use transform="translate(153.033867 37.120312)scale(0.7)" xlink:href="#LiberationSans-50"/>
      </g>
     </g>
    </g>
    <g id="ytick_4">
     <g id="line2d_34">
      <path clip-path="url(#peb5cf2a1fc)" d="M 75.81 413.051279 
L 1340.030878 413.051279 
" style="fill:none;stroke:#d5d5d5;stroke-dasharray:1.85,0.8;stroke-dashoffset:0;stroke-width:0.5;"/>
     </g>
     <g id="line2d_35">
      <g>
       <use style="fill:#262626;stroke:#262626;" x="75.81" xlink:href="#m142a8c8c4d" y="413.051279"/>
      </g>
     </g>
     <g id="text_11">
      <!-- $\mathdefault{10^{-1}}$ -->
      <g style="fill:#262626;" transform="translate(31.36 418.848779)scale(0.16 -0.16)">
       <use transform="translate(0 0.8625)" xlink:href="#LiberationSans-49"/>
       <use transform="translate(55.615234 0.8625)" xlink:href="#LiberationSans-48"/>
       <use transform="translate(112.154961 37.842188)scale(0.7)" xlink:href="#LiberationSans-8722"/>
       <use transform="translate(153.033867 37.842188)scale(0.7)" xlink:href="#LiberationSans-49"/>
      </g>
     </g>
    </g>
    <g id="ytick_5">
     <g id="line2d_36">
      <path clip-path="url(#peb5cf2a1fc)" d="M 75.81 337.620383 
L 1340.030878 337.620383 
" style="fill:none;stroke:#d5d5d5;stroke-dasharray:1.85,0.8;stroke-dashoffset:0;stroke-width:0.5;"/>
     </g>
     <g id="line2d_37">
      <g>
       <use style="fill:#262626;stroke:#262626;" x="75.81" xlink:href="#m142a8c8c4d" y="337.620383"/>
      </g>
     </g>
     <g id="text_12">
      <!-- $\mathdefault{10^{0}}$ -->
      <g style="fill:#262626;" transform="translate(37.92 343.417883)scale(0.16 -0.16)">
       <use transform="translate(0 0.140625)" xlink:href="#LiberationSans-49"/>
       <use transform="translate(55.615234 0.140625)" xlink:href="#LiberationSans-48"/>
       <use transform="translate(112.154961 37.120312)scale(0.7)" xlink:href="#LiberationSans-48"/>
      </g>
     </g>
    </g>
    <g id="ytick_6">
     <g id="line2d_38">
      <path clip-path="url(#peb5cf2a1fc)" d="M 75.81 262.189487 
L 1340.030878 262.189487 
" style="fill:none;stroke:#d5d5d5;stroke-dasharray:1.85,0.8;stroke-dashoffset:0;stroke-width:0.5;"/>
     </g>
     <g id="line2d_39">
      <g>
       <use style="fill:#262626;stroke:#262626;" x="75.81" xlink:href="#m142a8c8c4d" y="262.189487"/>
      </g>
     </g>
     <g id="text_13">
      <!-- $\mathdefault{10^{1}}$ -->
      <g style="fill:#262626;" transform="translate(37.92 267.986987)scale(0.16 -0.16)">
       <use transform="translate(0 0.8625)" xlink:href="#LiberationSans-49"/>
       <use transform="translate(55.615234 0.8625)" xlink:href="#LiberationSans-48"/>
       <use transform="translate(112.154961 37.842188)scale(0.7)" xlink:href="#LiberationSans-49"/>
      </g>
     </g>
    </g>
    <g id="ytick_7">
     <g id="line2d_40">
      <path clip-path="url(#peb5cf2a1fc)" d="M 75.81 186.758591 
L 1340.030878 186.758591 
" style="fill:none;stroke:#d5d5d5;stroke-dasharray:1.85,0.8;stroke-dashoffset:0;stroke-width:0.5;"/>
     </g>
     <g id="line2d_41">
      <g>
       <use style="fill:#262626;stroke:#262626;" x="75.81" xlink:href="#m142a8c8c4d" y="186.758591"/>
      </g>
     </g>
     <g id="text_14">
      <!-- $\mathdefault{10^{2}}$ -->
      <g style="fill:#262626;" transform="translate(37.92 192.556091)scale(0.16 -0.16)">
       <use transform="translate(0 0.140625)" xlink:href="#LiberationSans-49"/>
       <use transform="translate(55.615234 0.140625)" xlink:href="#LiberationSans-48"/>
       <use transform="translate(112.154961 37.120312)scale(0.7)" xlink:href="#LiberationSans-50"/>
      </g>
     </g>
    </g>
    <g id="ytick_8">
     <g id="line2d_42">
      <path clip-path="url(#peb5cf2a1fc)" d="M 75.81 111.327696 
L 1340.030878 111.327696 
" style="fill:none;stroke:#d5d5d5;stroke-dasharray:1.85,0.8;stroke-dashoffset:0;stroke-width:0.5;"/>
     </g>
     <g id="line2d_43">
      <g>
       <use style="fill:#262626;stroke:#262626;" x="75.81" xlink:href="#m142a8c8c4d" y="111.327696"/>
      </g>
     </g>
     <g id="text_15">
      <!-- $\mathdefault{10^{3}}$ -->
      <g style="fill:#262626;" transform="translate(37.92 117.125196)scale(0.16 -0.16)">
       <use transform="translate(0 0.140625)" xlink:href="#LiberationSans-49"/>
       <use transform="translate(55.615234 0.140625)" xlink:href="#LiberationSans-48"/>
       <use transform="translate(112.154961 37.120312)scale(0.7)" xlink:href="#LiberationSans-51"/>
      </g>
     </g>
    </g>
    <g id="ytick_9">
     <g id="line2d_44">
      <path clip-path="url(#peb5cf2a1fc)" d="M 75.81 35.8968 
L 1340.030878 35.8968 
" style="fill:none;stroke:#d5d5d5;stroke-dasharray:1.85,0.8;stroke-dashoffset:0;stroke-width:0.5;"/>
     </g>
     <g id="line2d_45">
      <g>
       <use style="fill:#262626;stroke:#262626;" x="75.81" xlink:href="#m142a8c8c4d" y="35.8968"/>
      </g>
     </g>
     <g id="text_16">
      <!-- $\mathdefault{10^{4}}$ -->
      <g style="fill:#262626;" transform="translate(37.92 41.6943)scale(0.16 -0.16)">
       <use transform="translate(0 0.8625)" xlink:href="#LiberationSans-49"/>
       <use transform="translate(55.615234 0.8625)" xlink:href="#LiberationSans-48"/>
       <use transform="translate(112.154961 37.842188)scale(0.7)" xlink:href="#LiberationSans-52"/>
      </g>
     </g>
    </g>
    <g id="ytick_10">
     <g id="line2d_46">
      <defs>
       <path d="M 0 0 
L -3.75 0 
" id="m9c437d2dc2" style="stroke:#262626;"/>
      </defs>
      <g>
       <use style="fill:#262626;stroke:#262626;" x="75.81" xlink:href="#m9c437d2dc2" y="692.067899"/>
      </g>
     </g>
    </g>
    <g id="ytick_11">
     <g id="line2d_47">
      <g>
       <use style="fill:#262626;stroke:#262626;" x="75.81" xlink:href="#m9c437d2dc2" y="678.785178"/>
      </g>
     </g>
    </g>
    <g id="ytick_12">
     <g id="line2d_48">
      <g>
       <use style="fill:#262626;stroke:#262626;" x="75.81" xlink:href="#m9c437d2dc2" y="669.360937"/>
      </g>
     </g>
    </g>
    <g id="ytick_13">
     <g id="line2d_49">
      <g>
       <use style="fill:#262626;stroke:#262626;" x="75.81" xlink:href="#m9c437d2dc2" y="662.050928"/>
      </g>
     </g>
    </g>
    <g id="ytick_14">
     <g id="line2d_50">
      <g>
       <use style="fill:#262626;stroke:#262626;" x="75.81" xlink:href="#m9c437d2dc2" y="656.078216"/>
      </g>
     </g>
    </g>
    <g id="ytick_15">
     <g id="line2d_51">
      <g>
       <use style="fill:#262626;stroke:#262626;" x="75.81" xlink:href="#m9c437d2dc2" y="651.028359"/>
      </g>
     </g>
    </g>
    <g id="ytick_16">
     <g id="line2d_52">
      <g>
       <use style="fill:#262626;stroke:#262626;" x="75.81" xlink:href="#m9c437d2dc2" y="646.653975"/>
      </g>
     </g>
    </g>
    <g id="ytick_17">
     <g id="line2d_53">
      <g>
       <use style="fill:#262626;stroke:#262626;" x="75.81" xlink:href="#m9c437d2dc2" y="642.795494"/>
      </g>
     </g>
    </g>
    <g id="ytick_18">
     <g id="line2d_54">
      <g>
       <use style="fill:#262626;stroke:#262626;" x="75.81" xlink:href="#m9c437d2dc2" y="616.637004"/>
      </g>
     </g>
    </g>
    <g id="ytick_19">
     <g id="line2d_55">
      <g>
       <use style="fill:#262626;stroke:#262626;" x="75.81" xlink:href="#m9c437d2dc2" y="603.354282"/>
      </g>
     </g>
    </g>
    <g id="ytick_20">
     <g id="line2d_56">
      <g>
       <use style="fill:#262626;stroke:#262626;" x="75.81" xlink:href="#m9c437d2dc2" y="593.930041"/>
      </g>
     </g>
    </g>
    <g id="ytick_21">
     <g id="line2d_57">
      <g>
       <use style="fill:#262626;stroke:#262626;" x="75.81" xlink:href="#m9c437d2dc2" y="586.620032"/>
      </g>
     </g>
    </g>
    <g id="ytick_22">
     <g id="line2d_58">
      <g>
       <use style="fill:#262626;stroke:#262626;" x="75.81" xlink:href="#m9c437d2dc2" y="580.64732"/>
      </g>
     </g>
    </g>
    <g id="ytick_23">
     <g id="line2d_59">
      <g>
       <use style="fill:#262626;stroke:#262626;" x="75.81" xlink:href="#m9c437d2dc2" y="575.597464"/>
      </g>
     </g>
    </g>
    <g id="ytick_24">
     <g id="line2d_60">
      <g>
       <use style="fill:#262626;stroke:#262626;" x="75.81" xlink:href="#m9c437d2dc2" y="571.223079"/>
      </g>
     </g>
    </g>
    <g id="ytick_25">
     <g id="line2d_61">
      <g>
       <use style="fill:#262626;stroke:#262626;" x="75.81" xlink:href="#m9c437d2dc2" y="567.364599"/>
      </g>
     </g>
    </g>
    <g id="ytick_26">
     <g id="line2d_62">
      <g>
       <use style="fill:#262626;stroke:#262626;" x="75.81" xlink:href="#m9c437d2dc2" y="541.206108"/>
      </g>
     </g>
    </g>
    <g id="ytick_27">
     <g id="line2d_63">
      <g>
       <use style="fill:#262626;stroke:#262626;" x="75.81" xlink:href="#m9c437d2dc2" y="527.923387"/>
      </g>
     </g>
    </g>
    <g id="ytick_28">
     <g id="line2d_64">
      <g>
       <use style="fill:#262626;stroke:#262626;" x="75.81" xlink:href="#m9c437d2dc2" y="518.499146"/>
      </g>
     </g>
    </g>
    <g id="ytick_29">
     <g id="line2d_65">
      <g>
       <use style="fill:#262626;stroke:#262626;" x="75.81" xlink:href="#m9c437d2dc2" y="511.189137"/>
      </g>
     </g>
    </g>
    <g id="ytick_30">
     <g id="line2d_66">
      <g>
       <use style="fill:#262626;stroke:#262626;" x="75.81" xlink:href="#m9c437d2dc2" y="505.216424"/>
      </g>
     </g>
    </g>
    <g id="ytick_31">
     <g id="line2d_67">
      <g>
       <use style="fill:#262626;stroke:#262626;" x="75.81" xlink:href="#m9c437d2dc2" y="500.166568"/>
      </g>
     </g>
    </g>
    <g id="ytick_32">
     <g id="line2d_68">
      <g>
       <use style="fill:#262626;stroke:#262626;" x="75.81" xlink:href="#m9c437d2dc2" y="495.792183"/>
      </g>
     </g>
    </g>
    <g id="ytick_33">
     <g id="line2d_69">
      <g>
       <use style="fill:#262626;stroke:#262626;" x="75.81" xlink:href="#m9c437d2dc2" y="491.933703"/>
      </g>
     </g>
    </g>
    <g id="ytick_34">
     <g id="line2d_70">
      <g>
       <use style="fill:#262626;stroke:#262626;" x="75.81" xlink:href="#m9c437d2dc2" y="465.775212"/>
      </g>
     </g>
    </g>
    <g id="ytick_35">
     <g id="line2d_71">
      <g>
       <use style="fill:#262626;stroke:#262626;" x="75.81" xlink:href="#m9c437d2dc2" y="452.492491"/>
      </g>
     </g>
    </g>
    <g id="ytick_36">
     <g id="line2d_72">
      <g>
       <use style="fill:#262626;stroke:#262626;" x="75.81" xlink:href="#m9c437d2dc2" y="443.06825"/>
      </g>
     </g>
    </g>
    <g id="ytick_37">
     <g id="line2d_73">
      <g>
       <use style="fill:#262626;stroke:#262626;" x="75.81" xlink:href="#m9c437d2dc2" y="435.758241"/>
      </g>
     </g>
    </g>
    <g id="ytick_38">
     <g id="line2d_74">
      <g>
       <use style="fill:#262626;stroke:#262626;" x="75.81" xlink:href="#m9c437d2dc2" y="429.785529"/>
      </g>
     </g>
    </g>
    <g id="ytick_39">
     <g id="line2d_75">
      <g>
       <use style="fill:#262626;stroke:#262626;" x="75.81" xlink:href="#m9c437d2dc2" y="424.735672"/>
      </g>
     </g>
    </g>
    <g id="ytick_40">
     <g id="line2d_76">
      <g>
       <use style="fill:#262626;stroke:#262626;" x="75.81" xlink:href="#m9c437d2dc2" y="420.361288"/>
      </g>
     </g>
    </g>
    <g id="ytick_41">
     <g id="line2d_77">
      <g>
       <use style="fill:#262626;stroke:#262626;" x="75.81" xlink:href="#m9c437d2dc2" y="416.502807"/>
      </g>
     </g>
    </g>
    <g id="ytick_42">
     <g id="line2d_78">
      <g>
       <use style="fill:#262626;stroke:#262626;" x="75.81" xlink:href="#m9c437d2dc2" y="390.344316"/>
      </g>
     </g>
    </g>
    <g id="ytick_43">
     <g id="line2d_79">
      <g>
       <use style="fill:#262626;stroke:#262626;" x="75.81" xlink:href="#m9c437d2dc2" y="377.061595"/>
      </g>
     </g>
    </g>
    <g id="ytick_44">
     <g id="line2d_80">
      <g>
       <use style="fill:#262626;stroke:#262626;" x="75.81" xlink:href="#m9c437d2dc2" y="367.637354"/>
      </g>
     </g>
    </g>
    <g id="ytick_45">
     <g id="line2d_81">
      <g>
       <use style="fill:#262626;stroke:#262626;" x="75.81" xlink:href="#m9c437d2dc2" y="360.327345"/>
      </g>
     </g>
    </g>
    <g id="ytick_46">
     <g id="line2d_82">
      <g>
       <use style="fill:#262626;stroke:#262626;" x="75.81" xlink:href="#m9c437d2dc2" y="354.354633"/>
      </g>
     </g>
    </g>
    <g id="ytick_47">
     <g id="line2d_83">
      <g>
       <use style="fill:#262626;stroke:#262626;" x="75.81" xlink:href="#m9c437d2dc2" y="349.304777"/>
      </g>
     </g>
    </g>
    <g id="ytick_48">
     <g id="line2d_84">
      <g>
       <use style="fill:#262626;stroke:#262626;" x="75.81" xlink:href="#m9c437d2dc2" y="344.930392"/>
      </g>
     </g>
    </g>
    <g id="ytick_49">
     <g id="line2d_85">
      <g>
       <use style="fill:#262626;stroke:#262626;" x="75.81" xlink:href="#m9c437d2dc2" y="341.071911"/>
      </g>
     </g>
    </g>
    <g id="ytick_50">
     <g id="line2d_86">
      <g>
       <use style="fill:#262626;stroke:#262626;" x="75.81" xlink:href="#m9c437d2dc2" y="314.913421"/>
      </g>
     </g>
    </g>
    <g id="ytick_51">
     <g id="line2d_87">
      <g>
       <use style="fill:#262626;stroke:#262626;" x="75.81" xlink:href="#m9c437d2dc2" y="301.630699"/>
      </g>
     </g>
    </g>
    <g id="ytick_52">
     <g id="line2d_88">
      <g>
       <use style="fill:#262626;stroke:#262626;" x="75.81" xlink:href="#m9c437d2dc2" y="292.206459"/>
      </g>
     </g>
    </g>
    <g id="ytick_53">
     <g id="line2d_89">
      <g>
       <use style="fill:#262626;stroke:#262626;" x="75.81" xlink:href="#m9c437d2dc2" y="284.896449"/>
      </g>
     </g>
    </g>
    <g id="ytick_54">
     <g id="line2d_90">
      <g>
       <use style="fill:#262626;stroke:#262626;" x="75.81" xlink:href="#m9c437d2dc2" y="278.923737"/>
      </g>
     </g>
    </g>
    <g id="ytick_55">
     <g id="line2d_91">
      <g>
       <use style="fill:#262626;stroke:#262626;" x="75.81" xlink:href="#m9c437d2dc2" y="273.873881"/>
      </g>
     </g>
    </g>
    <g id="ytick_56">
     <g id="line2d_92">
      <g>
       <use style="fill:#262626;stroke:#262626;" x="75.81" xlink:href="#m9c437d2dc2" y="269.499496"/>
      </g>
     </g>
    </g>
    <g id="ytick_57">
     <g id="line2d_93">
      <g>
       <use style="fill:#262626;stroke:#262626;" x="75.81" xlink:href="#m9c437d2dc2" y="265.641016"/>
      </g>
     </g>
    </g>
    <g id="ytick_58">
     <g id="line2d_94">
      <g>
       <use style="fill:#262626;stroke:#262626;" x="75.81" xlink:href="#m9c437d2dc2" y="239.482525"/>
      </g>
     </g>
    </g>
    <g id="ytick_59">
     <g id="line2d_95">
      <g>
       <use style="fill:#262626;stroke:#262626;" x="75.81" xlink:href="#m9c437d2dc2" y="226.199804"/>
      </g>
     </g>
    </g>
    <g id="ytick_60">
     <g id="line2d_96">
      <g>
       <use style="fill:#262626;stroke:#262626;" x="75.81" xlink:href="#m9c437d2dc2" y="216.775563"/>
      </g>
     </g>
    </g>
    <g id="ytick_61">
     <g id="line2d_97">
      <g>
       <use style="fill:#262626;stroke:#262626;" x="75.81" xlink:href="#m9c437d2dc2" y="209.465554"/>
      </g>
     </g>
    </g>
    <g id="ytick_62">
     <g id="line2d_98">
      <g>
       <use style="fill:#262626;stroke:#262626;" x="75.81" xlink:href="#m9c437d2dc2" y="203.492841"/>
      </g>
     </g>
    </g>
    <g id="ytick_63">
     <g id="line2d_99">
      <g>
       <use style="fill:#262626;stroke:#262626;" x="75.81" xlink:href="#m9c437d2dc2" y="198.442985"/>
      </g>
     </g>
    </g>
    <g id="ytick_64">
     <g id="line2d_100">
      <g>
       <use style="fill:#262626;stroke:#262626;" x="75.81" xlink:href="#m9c437d2dc2" y="194.068601"/>
      </g>
     </g>
    </g>
    <g id="ytick_65">
     <g id="line2d_101">
      <g>
       <use style="fill:#262626;stroke:#262626;" x="75.81" xlink:href="#m9c437d2dc2" y="190.21012"/>
      </g>
     </g>
    </g>
    <g id="ytick_66">
     <g id="line2d_102">
      <g>
       <use style="fill:#262626;stroke:#262626;" x="75.81" xlink:href="#m9c437d2dc2" y="164.051629"/>
      </g>
     </g>
    </g>
    <g id="ytick_67">
     <g id="line2d_103">
      <g>
       <use style="fill:#262626;stroke:#262626;" x="75.81" xlink:href="#m9c437d2dc2" y="150.768908"/>
      </g>
     </g>
    </g>
    <g id="ytick_68">
     <g id="line2d_104">
      <g>
       <use style="fill:#262626;stroke:#262626;" x="75.81" xlink:href="#m9c437d2dc2" y="141.344667"/>
      </g>
     </g>
    </g>
    <g id="ytick_69">
     <g id="line2d_105">
      <g>
       <use style="fill:#262626;stroke:#262626;" x="75.81" xlink:href="#m9c437d2dc2" y="134.034658"/>
      </g>
     </g>
    </g>
    <g id="ytick_70">
     <g id="line2d_106">
      <g>
       <use style="fill:#262626;stroke:#262626;" x="75.81" xlink:href="#m9c437d2dc2" y="128.061946"/>
      </g>
     </g>
    </g>
    <g id="ytick_71">
     <g id="line2d_107">
      <g>
       <use style="fill:#262626;stroke:#262626;" x="75.81" xlink:href="#m9c437d2dc2" y="123.012089"/>
      </g>
     </g>
    </g>
    <g id="ytick_72">
     <g id="line2d_108">
      <g>
       <use style="fill:#262626;stroke:#262626;" x="75.81" xlink:href="#m9c437d2dc2" y="118.637705"/>
      </g>
     </g>
    </g>
    <g id="ytick_73">
     <g id="line2d_109">
      <g>
       <use style="fill:#262626;stroke:#262626;" x="75.81" xlink:href="#m9c437d2dc2" y="114.779224"/>
      </g>
     </g>
    </g>
    <g id="ytick_74">
     <g id="line2d_110">
      <g>
       <use style="fill:#262626;stroke:#262626;" x="75.81" xlink:href="#m9c437d2dc2" y="88.620734"/>
      </g>
     </g>
    </g>
    <g id="ytick_75">
     <g id="line2d_111">
      <g>
       <use style="fill:#262626;stroke:#262626;" x="75.81" xlink:href="#m9c437d2dc2" y="75.338012"/>
      </g>
     </g>
    </g>
    <g id="ytick_76">
     <g id="line2d_112">
      <g>
       <use style="fill:#262626;stroke:#262626;" x="75.81" xlink:href="#m9c437d2dc2" y="65.913771"/>
      </g>
     </g>
    </g>
    <g id="ytick_77">
     <g id="line2d_113">
      <g>
       <use style="fill:#262626;stroke:#262626;" x="75.81" xlink:href="#m9c437d2dc2" y="58.603762"/>
      </g>
     </g>
    </g>
    <g id="ytick_78">
     <g id="line2d_114">
      <g>
       <use style="fill:#262626;stroke:#262626;" x="75.81" xlink:href="#m9c437d2dc2" y="52.63105"/>
      </g>
     </g>
    </g>
    <g id="ytick_79">
     <g id="line2d_115">
      <g>
       <use style="fill:#262626;stroke:#262626;" x="75.81" xlink:href="#m9c437d2dc2" y="47.581194"/>
      </g>
     </g>
    </g>
    <g id="ytick_80">
     <g id="line2d_116">
      <g>
       <use style="fill:#262626;stroke:#262626;" x="75.81" xlink:href="#m9c437d2dc2" y="43.206809"/>
      </g>
     </g>
    </g>
    <g id="ytick_81">
     <g id="line2d_117">
      <g>
       <use style="fill:#262626;stroke:#262626;" x="75.81" xlink:href="#m9c437d2dc2" y="39.348328"/>
      </g>
     </g>
    </g>
    <g id="text_17">
     <!-- $Luminance\ (cd/m^2)$ -->
     <defs>
      <path d="M 16.796875 72.90625 
L 26.703125 72.90625 
L 14.203125 8.203125 
L 49.703125 8.203125 
L 48.09375 0 
L 2.6875 0 
z
" id="DejaVuSans-Oblique-76"/>
      <path d="M 6.6875 21.6875 
L 13.09375 54.6875 
L 22.125 54.6875 
L 15.71875 22.015625 
Q 15.234375 19.625 15.015625 17.921875 
Q 14.796875 16.21875 14.796875 15.09375 
Q 14.796875 10.9375 17.328125 8.65625 
Q 19.875 6.390625 24.515625 6.390625 
Q 31.734375 6.390625 37 11.265625 
Q 42.28125 16.15625 43.890625 24.421875 
L 49.90625 54.6875 
L 58.890625 54.6875 
L 48.296875 0 
L 39.3125 0 
L 41.109375 8.59375 
Q 37.3125 3.8125 32.0625 1.1875 
Q 26.8125 -1.421875 20.90625 -1.421875 
Q 13.71875 -1.421875 9.71875 2.515625 
Q 5.71875 6.453125 5.71875 13.484375 
Q 5.71875 14.9375 5.953125 17.140625 
Q 6.203125 19.34375 6.6875 21.6875 
z
" id="DejaVuSans-Oblique-117"/>
      <path d="M 89.796875 33.015625 
L 83.40625 0 
L 74.421875 0 
L 80.71875 32.71875 
Q 81.109375 34.8125 81.296875 36.328125 
Q 81.5 37.84375 81.5 38.921875 
Q 81.5 43.3125 79.046875 45.75 
Q 76.609375 48.1875 72.21875 48.1875 
Q 65.671875 48.1875 60.546875 43.28125 
Q 55.421875 38.375 53.90625 30.515625 
L 47.90625 0 
L 38.921875 0 
L 45.3125 32.71875 
Q 45.703125 34.515625 45.890625 36.046875 
Q 46.09375 37.59375 46.09375 38.8125 
Q 46.09375 43.265625 43.65625 45.71875 
Q 41.21875 48.1875 36.921875 48.1875 
Q 30.28125 48.1875 25.140625 43.28125 
Q 20.015625 38.375 18.5 30.515625 
L 12.5 0 
L 3.515625 0 
L 14.203125 54.6875 
L 23.1875 54.6875 
L 21.484375 46.1875 
Q 25.140625 50.984375 30.046875 53.484375 
Q 34.96875 56 40.578125 56 
Q 46.53125 56 50.359375 52.875 
Q 54.203125 49.75 54.984375 44.1875 
Q 59.078125 49.953125 64.46875 52.96875 
Q 69.875 56 75.875 56 
Q 82.90625 56 86.734375 51.953125 
Q 90.578125 47.90625 90.578125 40.484375 
Q 90.578125 38.875 90.375 36.9375 
Q 90.1875 35.015625 89.796875 33.015625 
z
" id="DejaVuSans-Oblique-109"/>
      <path d="M 18.3125 75.984375 
L 27.296875 75.984375 
L 25.09375 64.59375 
L 16.109375 64.59375 
z
M 14.203125 54.6875 
L 23.1875 54.6875 
L 12.5 0 
L 3.515625 0 
z
" id="DejaVuSans-Oblique-105"/>
      <path d="M 55.71875 33.015625 
L 49.3125 0 
L 40.28125 0 
L 46.6875 32.671875 
Q 47.125 34.96875 47.359375 36.71875 
Q 47.609375 38.484375 47.609375 39.5 
Q 47.609375 43.609375 45.015625 45.890625 
Q 42.4375 48.1875 37.796875 48.1875 
Q 30.5625 48.1875 25.34375 43.375 
Q 20.125 38.578125 18.5 30.328125 
L 12.5 0 
L 3.515625 0 
L 14.109375 54.6875 
L 23.09375 54.6875 
L 21.296875 46.09375 
Q 25.046875 50.828125 30.3125 53.40625 
Q 35.59375 56 41.40625 56 
Q 48.640625 56 52.609375 52.09375 
Q 56.59375 48.1875 56.59375 41.109375 
Q 56.59375 39.359375 56.375 37.359375 
Q 56.15625 35.359375 55.71875 33.015625 
z
" id="DejaVuSans-Oblique-110"/>
      <path d="M 53.71875 31.203125 
L 47.609375 0 
L 38.625 0 
L 40.28125 8.296875 
Q 36.328125 3.421875 31.265625 1 
Q 26.21875 -1.421875 20.015625 -1.421875 
Q 13.03125 -1.421875 8.5625 2.84375 
Q 4.109375 7.125 4.109375 13.8125 
Q 4.109375 23.390625 11.75 28.953125 
Q 19.390625 34.515625 32.8125 34.515625 
L 45.3125 34.515625 
L 45.796875 36.921875 
Q 45.90625 37.3125 45.953125 37.765625 
Q 46 38.234375 46 39.203125 
Q 46 43.5625 42.453125 45.96875 
Q 38.921875 48.390625 32.515625 48.390625 
Q 28.125 48.390625 23.5 47.265625 
Q 18.890625 46.140625 14.015625 43.890625 
L 15.578125 52.203125 
Q 20.65625 54.109375 25.515625 55.046875 
Q 30.375 56 34.90625 56 
Q 44.578125 56 49.625 51.796875 
Q 54.6875 47.609375 54.6875 39.59375 
Q 54.6875 37.984375 54.4375 35.8125 
Q 54.203125 33.640625 53.71875 31.203125 
z
M 44 27.484375 
L 35.015625 27.484375 
Q 23.96875 27.484375 18.671875 24.53125 
Q 13.375 21.578125 13.375 15.375 
Q 13.375 11.078125 16.078125 8.640625 
Q 18.796875 6.203125 23.578125 6.203125 
Q 30.90625 6.203125 36.375 11.453125 
Q 41.84375 16.703125 43.609375 25.484375 
z
" id="DejaVuSans-Oblique-97"/>
      <path d="M 53.609375 52.59375 
L 51.8125 43.703125 
Q 48.578125 46.046875 44.9375 47.21875 
Q 41.3125 48.390625 37.40625 48.390625 
Q 33.109375 48.390625 29.21875 46.875 
Q 25.34375 45.359375 22.703125 42.578125 
Q 18.5 38.328125 16.203125 32.609375 
Q 13.921875 26.90625 13.921875 20.796875 
Q 13.921875 13.421875 17.609375 9.8125 
Q 21.296875 6.203125 28.8125 6.203125 
Q 32.515625 6.203125 36.6875 7.328125 
Q 40.875 8.453125 45.40625 10.6875 
L 43.703125 1.8125 
Q 39.796875 0.203125 35.671875 -0.609375 
Q 31.546875 -1.421875 27.203125 -1.421875 
Q 16.3125 -1.421875 10.453125 4.015625 
Q 4.59375 9.46875 4.59375 19.578125 
Q 4.59375 28.078125 7.640625 35.234375 
Q 10.6875 42.390625 16.703125 48.09375 
Q 20.796875 52 26.3125 54 
Q 31.84375 56 38.375 56 
Q 42.1875 56 45.9375 55.140625 
Q 49.703125 54.296875 53.609375 52.59375 
z
" id="DejaVuSans-Oblique-99"/>
      <path d="M 48.09375 32.234375 
Q 48.25 33.015625 48.3125 33.84375 
Q 48.390625 34.671875 48.390625 35.5 
Q 48.390625 41.453125 44.890625 44.921875 
Q 41.40625 48.390625 35.40625 48.390625 
Q 28.71875 48.390625 23.578125 44.15625 
Q 18.453125 39.9375 15.828125 32.171875 
z
M 55.90625 25.203125 
L 14.109375 25.203125 
Q 13.8125 23.34375 13.71875 22.265625 
Q 13.625 21.1875 13.625 20.40625 
Q 13.625 13.625 17.796875 9.90625 
Q 21.96875 6.203125 29.59375 6.203125 
Q 35.453125 6.203125 40.671875 7.515625 
Q 45.90625 8.84375 50.390625 11.375 
L 48.6875 2.484375 
Q 43.84375 0.53125 38.6875 -0.4375 
Q 33.546875 -1.421875 28.21875 -1.421875 
Q 16.84375 -1.421875 10.71875 4.015625 
Q 4.59375 9.46875 4.59375 19.484375 
Q 4.59375 28.03125 7.640625 35.375 
Q 10.6875 42.71875 16.609375 48.484375 
Q 20.40625 52.09375 25.65625 54.046875 
Q 30.90625 56 36.8125 56 
Q 46.09375 56 51.578125 50.4375 
Q 57.078125 44.875 57.078125 35.5 
Q 57.078125 33.25 56.78125 30.6875 
Q 56.5 28.125 55.90625 25.203125 
z
" id="DejaVuSans-Oblique-101"/>
      <path d="M 31 75.875 
Q 24.46875 64.65625 21.28125 53.65625 
Q 18.109375 42.671875 18.109375 31.390625 
Q 18.109375 20.125 21.3125 9.0625 
Q 24.515625 -2 31 -13.1875 
L 23.1875 -13.1875 
Q 15.875 -1.703125 12.234375 9.375 
Q 8.59375 20.453125 8.59375 31.390625 
Q 8.59375 42.28125 12.203125 53.3125 
Q 15.828125 64.359375 23.1875 75.875 
z
" id="DejaVuSans-40"/>
      <path d="M 41.796875 8.203125 
Q 38.1875 3.46875 33.25 1.015625 
Q 28.328125 -1.421875 22.3125 -1.421875 
Q 14.109375 -1.421875 9.34375 4.171875 
Q 4.59375 9.765625 4.59375 19.484375 
Q 4.59375 27.59375 7.46875 34.9375 
Q 10.359375 42.28125 15.828125 48.09375 
Q 19.4375 51.953125 23.96875 53.96875 
Q 28.515625 56 33.5 56 
Q 38.765625 56 42.796875 53.453125 
Q 46.828125 50.921875 49.03125 46.1875 
L 54.890625 75.984375 
L 63.921875 75.984375 
L 49.125 0 
L 40.09375 0 
z
M 13.921875 21.09375 
Q 13.921875 14.015625 17.109375 10.0625 
Q 20.3125 6.109375 25.984375 6.109375 
Q 30.171875 6.109375 33.765625 8.125 
Q 37.359375 10.15625 40.09375 14.109375 
Q 42.96875 18.21875 44.625 23.578125 
Q 46.296875 28.953125 46.296875 34.1875 
Q 46.296875 40.96875 43.09375 44.765625 
Q 39.890625 48.578125 34.28125 48.578125 
Q 30.03125 48.578125 26.359375 46.578125 
Q 22.703125 44.578125 20.125 40.828125 
Q 17.28125 36.765625 15.59375 31.390625 
Q 13.921875 26.03125 13.921875 21.09375 
z
" id="DejaVuSans-Oblique-100"/>
      <path d="M 25.390625 72.90625 
L 33.6875 72.90625 
L 8.296875 -9.28125 
L 0 -9.28125 
z
" id="DejaVuSans-47"/>
      <path d="M 19.1875 8.296875 
L 53.609375 8.296875 
L 53.609375 0 
L 7.328125 0 
L 7.328125 8.296875 
Q 12.9375 14.109375 22.625 23.890625 
Q 32.328125 33.6875 34.8125 36.53125 
Q 39.546875 41.84375 41.421875 45.53125 
Q 43.3125 49.21875 43.3125 52.78125 
Q 43.3125 58.59375 39.234375 62.25 
Q 35.15625 65.921875 28.609375 65.921875 
Q 23.96875 65.921875 18.8125 64.3125 
Q 13.671875 62.703125 7.8125 59.421875 
L 7.8125 69.390625 
Q 13.765625 71.78125 18.9375 73 
Q 24.125 74.21875 28.421875 74.21875 
Q 39.75 74.21875 46.484375 68.546875 
Q 53.21875 62.890625 53.21875 53.421875 
Q 53.21875 48.921875 51.53125 44.890625 
Q 49.859375 40.875 45.40625 35.40625 
Q 44.1875 33.984375 37.640625 27.21875 
Q 31.109375 20.453125 19.1875 8.296875 
z
" id="DejaVuSans-50"/>
      <path d="M 8.015625 75.875 
L 15.828125 75.875 
Q 23.140625 64.359375 26.78125 53.3125 
Q 30.421875 42.28125 30.421875 31.390625 
Q 30.421875 20.453125 26.78125 9.375 
Q 23.140625 -1.703125 15.828125 -13.1875 
L 8.015625 -13.1875 
Q 14.5 -2 17.703125 9.0625 
Q 20.90625 20.125 20.90625 31.390625 
Q 20.90625 42.671875 17.703125 53.65625 
Q 14.5 64.65625 8.015625 75.875 
z
" id="DejaVuSans-41"/>
     </defs>
     <g style="fill:#262626;" transform="translate(23.376 459.8478)rotate(-90)scale(0.192 -0.192)">
      <use transform="translate(0 0.765625)" xlink:href="#DejaVuSans-Oblique-76"/>
      <use transform="translate(55.712891 0.765625)" xlink:href="#DejaVuSans-Oblique-117"/>
      <use transform="translate(119.091797 0.765625)" xlink:href="#DejaVuSans-Oblique-109"/>
      <use transform="translate(216.503906 0.765625)" xlink:href="#DejaVuSans-Oblique-105"/>
      <use transform="translate(244.287109 0.765625)" xlink:href="#DejaVuSans-Oblique-110"/>
      <use transform="translate(307.666016 0.765625)" xlink:href="#DejaVuSans-Oblique-97"/>
      <use transform="translate(368.945312 0.765625)" xlink:href="#DejaVuSans-Oblique-110"/>
      <use transform="translate(432.324219 0.765625)" xlink:href="#DejaVuSans-Oblique-99"/>
      <use transform="translate(487.304688 0.765625)" xlink:href="#DejaVuSans-Oblique-101"/>
      <use transform="translate(581.298503 0.765625)" xlink:href="#DejaVuSans-40"/>
      <use transform="translate(620.312175 0.765625)" xlink:href="#DejaVuSans-Oblique-99"/>
      <use transform="translate(675.292644 0.765625)" xlink:href="#DejaVuSans-Oblique-100"/>
      <use transform="translate(738.769207 0.765625)" xlink:href="#DejaVuSans-47"/>
      <use transform="translate(772.460613 0.765625)" xlink:href="#DejaVuSans-Oblique-109"/>
      <use transform="translate(874.522618 39.046875)scale(0.7)" xlink:href="#DejaVuSans-50"/>
      <use transform="translate(921.793126 0.765625)" xlink:href="#DejaVuSans-41"/>
     </g>
    </g>
   </g>
   <g id="line2d_118">
    <path clip-path="url(#peb5cf2a1fc)" d="M 77.073972 757.5498 
L 77.075486 667.6968 
L 78.340973 629.14496 
L 79.606459 606.406574 
L 80.871945 590.092104 
L 82.137432 577.294526 
L 83.402918 566.724669 
L 84.668405 557.695906 
L 85.933891 549.798433 
L 87.199377 542.76774 
L 89.73035 530.635091 
L 92.261323 520.370432 
L 94.792295 511.445493 
L 97.323268 503.530147 
L 99.854241 496.403991 
L 102.385214 489.912392 
L 104.916186 483.942587 
L 107.447159 478.409746 
L 111.243618 470.790514 
L 115.040077 463.844108 
L 118.836536 457.449788 
L 122.632995 451.517042 
L 126.429455 445.976219 
L 130.225914 440.772539 
L 135.287859 434.284114 
L 140.349805 428.235642 
L 145.41175 422.563106 
L 150.473696 417.215715 
L 155.535641 412.152466 
L 161.863073 406.172372 
L 168.190505 400.530781 
L 174.517936 395.184666 
L 180.845368 390.098833 
L 188.438286 384.298675 
L 196.031205 378.789925 
L 203.624123 373.538395 
L 212.482527 367.699044 
L 221.340932 362.133797 
L 230.199336 356.811616 
L 240.323227 350.993602 
L 250.447118 345.426742 
L 261.836496 339.43056 
L 273.225873 333.685556 
L 285.880737 327.563953 
L 298.5356 321.687808 
L 312.45595 315.476355 
L 326.3763 309.500808 
L 341.562137 303.222002 
L 358.013459 296.671948 
L 374.464782 290.355539 
L 392.181591 283.786231 
L 411.163887 276.986814 
L 431.411668 269.976732 
L 452.924937 262.772244 
L 475.703691 255.386628 
L 499.747932 247.830395 
L 525.057659 240.111508 
L 551.632873 232.235584 
L 580.739059 223.846037 
L 611.110732 215.3224 
L 644.013378 206.319589 
L 679.446996 196.856263 
L 717.411587 186.944977 
L 759.172637 176.271771 
L 805.995632 164.539725 
L 859.14606 151.460831 
L 921.154891 136.440491 
L 1000.880532 117.371222 
L 1242.588428 59.711366 
L 1308.393719 43.693592 
L 1340.030878 35.8968 
L 1340.030878 35.8968 
" style="fill:none;stroke:#f44336;stroke-linecap:round;"/>
   </g>
   <g id="patch_3">
    <path d="M 75.81 699.2868 
L 75.81 35.8968 
" style="fill:none;stroke:#333333;stroke-linecap:square;stroke-linejoin:miter;"/>
   </g>
   <g id="patch_4">
    <path d="M 1340.030878 699.2868 
L 1340.030878 35.8968 
" style="fill:none;stroke:#333333;stroke-linecap:square;stroke-linejoin:miter;"/>
   </g>
   <g id="patch_5">
    <path d="M 75.81 699.2868 
L 1340.030878 699.2868 
" style="fill:none;stroke:#333333;stroke-linecap:square;stroke-linejoin:miter;"/>
   </g>
   <g id="patch_6">
    <path d="M 75.81 35.8968 
L 1340.030878 35.8968 
" style="fill:none;stroke:#333333;stroke-linecap:square;stroke-linejoin:miter;"/>
   </g>
   <g id="text_18">
    <!-- ST.2084 EOTF -->
    <defs>
     <path d="M 35.15625 61.1875 
L 35.15625 0 
L 25.875 0 
L 25.875 61.1875 
L 2.25 61.1875 
L 2.25 68.796875 
L 58.796875 68.796875 
L 58.796875 61.1875 
z
" id="LiberationSans-84"/>
     <path id="LiberationSans-32"/>
     <path d="M 8.203125 0 
L 8.203125 68.796875 
L 60.40625 68.796875 
L 60.40625 61.1875 
L 17.53125 61.1875 
L 17.53125 39.109375 
L 57.46875 39.109375 
L 57.46875 31.59375 
L 17.53125 31.59375 
L 17.53125 7.625 
L 62.40625 7.625 
L 62.40625 0 
z
" id="LiberationSans-69"/>
     <path d="M 73 34.71875 
Q 73 26.65625 70.671875 20.0625 
Q 68.359375 13.484375 63.96875 8.796875 
Q 59.578125 4.109375 53.21875 1.5625 
Q 46.875 -0.984375 38.8125 -0.984375 
Q 30.328125 -0.984375 23.921875 1.671875 
Q 17.53125 4.34375 13.28125 9.109375 
Q 9.03125 13.875 6.875 20.40625 
Q 4.734375 26.953125 4.734375 34.71875 
Q 4.734375 42.78125 6.984375 49.265625 
Q 9.234375 55.765625 13.578125 60.328125 
Q 17.921875 64.890625 24.296875 67.359375 
Q 30.671875 69.828125 38.921875 69.828125 
Q 47.125 69.828125 53.484375 67.328125 
Q 59.859375 64.84375 64.171875 60.25 
Q 68.5 55.671875 70.75 49.171875 
Q 73 42.671875 73 34.71875 
z
M 63.484375 34.71875 
Q 63.484375 40.921875 61.890625 46 
Q 60.296875 51.078125 57.203125 54.6875 
Q 54.109375 58.296875 49.515625 60.25 
Q 44.921875 62.203125 38.921875 62.203125 
Q 32.765625 62.203125 28.125 60.25 
Q 23.484375 58.296875 20.375 54.6875 
Q 17.28125 51.078125 15.734375 46 
Q 14.203125 40.921875 14.203125 34.71875 
Q 14.203125 28.515625 15.796875 23.359375 
Q 17.390625 18.21875 20.484375 14.484375 
Q 23.578125 10.75 28.1875 8.671875 
Q 32.8125 6.59375 38.8125 6.59375 
Q 45.265625 6.59375 49.921875 8.6875 
Q 54.59375 10.796875 57.59375 14.53125 
Q 60.59375 18.265625 62.03125 23.4375 
Q 63.484375 28.609375 63.484375 34.71875 
z
" id="LiberationSans-79"/>
     <path d="M 17.53125 61.1875 
L 17.53125 35.59375 
L 55.90625 35.59375 
L 55.90625 27.875 
L 17.53125 27.875 
L 17.53125 0 
L 8.203125 0 
L 8.203125 68.796875 
L 57.078125 68.796875 
L 57.078125 61.1875 
z
" id="LiberationSans-70"/>
    </defs>
    <g style="fill:#111111;" transform="translate(630.477239 23.8968)scale(0.2304 -0.2304)">
     <use xlink:href="#LiberationSans-83"/>
     <use x="66.699219" xlink:href="#LiberationSans-84"/>
     <use x="127.611328" xlink:href="#LiberationSans-46"/>
     <use x="155.394531" xlink:href="#LiberationSans-50"/>
     <use x="211.009766" xlink:href="#LiberationSans-48"/>
     <use x="266.625" xlink:href="#LiberationSans-56"/>
     <use x="322.240234" xlink:href="#LiberationSans-52"/>
     <use x="377.855469" xlink:href="#LiberationSans-32"/>
     <use x="405.638672" xlink:href="#LiberationSans-69"/>
     <use x="472.337891" xlink:href="#LiberationSans-79"/>
     <use x="550.121094" xlink:href="#LiberationSans-84"/>
     <use x="611.205078" xlink:href="#LiberationSans-70"/>
    </g>
   </g>
   <g id="legend_1">
    <g id="patch_7">
     <path d="M 1320.038878 55.8888 
L 1333.366878 55.8888 
L 1333.366878 42.5608 
L 1320.038878 42.5608 
z
" style="fill:#f0f0f0;opacity:0.75;stroke:#cccccc;stroke-linejoin:miter;stroke-width:0.3;"/>
    </g>
   </g>
  </g>
 </g>
 <defs>
  <clipPath id="peb5cf2a1fc">
   <rect height="663.39" width="1264.220878" x="75.81" y="35.8968"/>
  </clipPath>
 </defs>
</svg>
